<mxfile host="app.diagrams.net" modified="2022-04-27T14:19:19.150Z" agent="5.0 (Windows NT 10.0; Win64; x64) AppleWebKit/537.36 (KHTML, like Gecko) Chrome/100.0.4896.127 Safari/537.36 Edg/100.0.1185.50" etag="zN4-00-nP0ru_wB3jMwX" version="17.4.6" type="github">
  <diagram id="Yb8D5lThMKvBHufGlIrT" name="Page-1">
    <mxGraphModel dx="1038" dy="579" grid="1" gridSize="10" guides="1" tooltips="1" connect="1" arrows="1" fold="1" page="1" pageScale="1" pageWidth="850" pageHeight="1100" math="0" shadow="0">
      <root>
        <mxCell id="0" />
        <mxCell id="1" parent="0" />
        <mxCell id="S_BnmoFApAnSWSCkH0mm-3" value="" style="edgeStyle=orthogonalEdgeStyle;rounded=0;orthogonalLoop=1;jettySize=auto;html=1;" edge="1" parent="1" source="S_BnmoFApAnSWSCkH0mm-1" target="S_BnmoFApAnSWSCkH0mm-2">
          <mxGeometry relative="1" as="geometry" />
        </mxCell>
        <mxCell id="S_BnmoFApAnSWSCkH0mm-1" value="start" style="rounded=1;whiteSpace=wrap;html=1;" vertex="1" parent="1">
          <mxGeometry x="320" y="20" width="100" height="40" as="geometry" />
        </mxCell>
        <mxCell id="S_BnmoFApAnSWSCkH0mm-5" value="" style="edgeStyle=orthogonalEdgeStyle;rounded=0;orthogonalLoop=1;jettySize=auto;html=1;" edge="1" parent="1" source="S_BnmoFApAnSWSCkH0mm-2" target="S_BnmoFApAnSWSCkH0mm-4">
          <mxGeometry relative="1" as="geometry" />
        </mxCell>
        <mxCell id="S_BnmoFApAnSWSCkH0mm-2" value="Initialize the simulator,playerzone, jsonservicecomm" style="rounded=0;whiteSpace=wrap;html=1;" vertex="1" parent="1">
          <mxGeometry x="310" y="100" width="120" height="60" as="geometry" />
        </mxCell>
        <mxCell id="S_BnmoFApAnSWSCkH0mm-7" value="" style="edgeStyle=orthogonalEdgeStyle;rounded=0;orthogonalLoop=1;jettySize=auto;html=1;" edge="1" parent="1" source="S_BnmoFApAnSWSCkH0mm-4" target="S_BnmoFApAnSWSCkH0mm-6">
          <mxGeometry relative="1" as="geometry" />
        </mxCell>
        <mxCell id="S_BnmoFApAnSWSCkH0mm-4" value="create the helper,&lt;br&gt;agentdrop position&amp;nbsp;" style="whiteSpace=wrap;html=1;rounded=0;" vertex="1" parent="1">
          <mxGeometry x="310" y="200" width="120" height="60" as="geometry" />
        </mxCell>
        <mxCell id="S_BnmoFApAnSWSCkH0mm-9" value="" style="edgeStyle=orthogonalEdgeStyle;rounded=0;orthogonalLoop=1;jettySize=auto;html=1;" edge="1" parent="1" source="S_BnmoFApAnSWSCkH0mm-6" target="S_BnmoFApAnSWSCkH0mm-8">
          <mxGeometry relative="1" as="geometry" />
        </mxCell>
        <mxCell id="S_BnmoFApAnSWSCkH0mm-6" value="initalize restagent,freevehicle array" style="whiteSpace=wrap;html=1;rounded=0;" vertex="1" parent="1">
          <mxGeometry x="310" y="300" width="120" height="60" as="geometry" />
        </mxCell>
        <mxCell id="S_BnmoFApAnSWSCkH0mm-8" value="end" style="ellipse;whiteSpace=wrap;html=1;rounded=0;" vertex="1" parent="1">
          <mxGeometry x="310" y="410" width="120" height="40" as="geometry" />
        </mxCell>
      </root>
    </mxGraphModel>
  </diagram>
</mxfile>
